<mxfile host="app.diagrams.net" agent="Mozilla/5.0 (Windows NT 10.0; Win64; x64; rv:109.0) Gecko/20100101 Firefox/109.0" version="26.0.7">
  <diagram name="Seite-1" id="Pq0TwmPGN4kfxmKtXpjD">
    <mxGraphModel dx="1137" dy="649" grid="1" gridSize="10" guides="1" tooltips="1" connect="1" arrows="1" fold="1" page="1" pageScale="1" pageWidth="827" pageHeight="1169" math="0" shadow="0">
      <root>
        <mxCell id="0" />
        <mxCell id="1" parent="0" />
        <mxCell id="ue3Qbj8Ns9bbCWjfKj7O-1" value="" style="endArrow=classic;startArrow=classic;html=1;rounded=0;entryX=0.5;entryY=0;entryDx=0;entryDy=0;exitX=0.5;exitY=0.925;exitDx=0;exitDy=0;exitPerimeter=0;" edge="1" parent="1" target="ue3Qbj8Ns9bbCWjfKj7O-4" source="ue3Qbj8Ns9bbCWjfKj7O-16">
          <mxGeometry width="50" height="50" relative="1" as="geometry">
            <mxPoint x="320" y="660" as="sourcePoint" />
            <mxPoint x="450" y="660" as="targetPoint" />
          </mxGeometry>
        </mxCell>
        <mxCell id="ue3Qbj8Ns9bbCWjfKj7O-4" value="A" style="rounded=1;whiteSpace=wrap;html=1;" vertex="1" parent="1">
          <mxGeometry x="280" y="690" width="120" height="60" as="geometry" />
        </mxCell>
        <mxCell id="ue3Qbj8Ns9bbCWjfKj7O-12" value="B" style="rounded=1;whiteSpace=wrap;html=1;" vertex="1" parent="1">
          <mxGeometry x="90" y="830" width="120" height="60" as="geometry" />
        </mxCell>
        <mxCell id="ue3Qbj8Ns9bbCWjfKj7O-13" value="C" style="rounded=1;whiteSpace=wrap;html=1;" vertex="1" parent="1">
          <mxGeometry x="90" y="690" width="120" height="60" as="geometry" />
        </mxCell>
        <mxCell id="ue3Qbj8Ns9bbCWjfKj7O-14" value="G" style="rounded=1;whiteSpace=wrap;html=1;" vertex="1" parent="1">
          <mxGeometry x="470" y="690" width="120" height="60" as="geometry" />
        </mxCell>
        <mxCell id="ue3Qbj8Ns9bbCWjfKj7O-15" value="D" style="rounded=1;whiteSpace=wrap;html=1;" vertex="1" parent="1">
          <mxGeometry x="90" y="554.5" width="120" height="60" as="geometry" />
        </mxCell>
        <mxCell id="ue3Qbj8Ns9bbCWjfKj7O-16" value="E" style="rounded=1;whiteSpace=wrap;html=1;" vertex="1" parent="1">
          <mxGeometry x="280" y="554.5" width="120" height="60" as="geometry" />
        </mxCell>
        <mxCell id="ue3Qbj8Ns9bbCWjfKj7O-17" value="F" style="rounded=1;whiteSpace=wrap;html=1;" vertex="1" parent="1">
          <mxGeometry x="470" y="554.5" width="120" height="60" as="geometry" />
        </mxCell>
        <mxCell id="ue3Qbj8Ns9bbCWjfKj7O-19" value="H" style="rounded=1;whiteSpace=wrap;html=1;" vertex="1" parent="1">
          <mxGeometry x="470" y="830" width="120" height="60" as="geometry" />
        </mxCell>
        <mxCell id="ue3Qbj8Ns9bbCWjfKj7O-20" value="I" style="rounded=1;whiteSpace=wrap;html=1;" vertex="1" parent="1">
          <mxGeometry x="280" y="830" width="120" height="60" as="geometry" />
        </mxCell>
        <mxCell id="ue3Qbj8Ns9bbCWjfKj7O-22" value="" style="endArrow=classic;startArrow=classic;html=1;rounded=0;exitX=1;exitY=0.5;exitDx=0;exitDy=0;" edge="1" parent="1" source="ue3Qbj8Ns9bbCWjfKj7O-15">
          <mxGeometry width="50" height="50" relative="1" as="geometry">
            <mxPoint x="670" y="600" as="sourcePoint" />
            <mxPoint x="280" y="585" as="targetPoint" />
          </mxGeometry>
        </mxCell>
        <mxCell id="ue3Qbj8Ns9bbCWjfKj7O-23" value="" style="endArrow=classic;startArrow=classic;html=1;rounded=0;entryX=0;entryY=0.5;entryDx=0;entryDy=0;" edge="1" parent="1" source="ue3Qbj8Ns9bbCWjfKj7O-13" target="ue3Qbj8Ns9bbCWjfKj7O-4">
          <mxGeometry width="50" height="50" relative="1" as="geometry">
            <mxPoint x="120" y="770" as="sourcePoint" />
            <mxPoint x="250" y="770" as="targetPoint" />
          </mxGeometry>
        </mxCell>
        <mxCell id="ue3Qbj8Ns9bbCWjfKj7O-24" value="" style="endArrow=classic;startArrow=classic;html=1;rounded=0;entryX=0.5;entryY=0;entryDx=0;entryDy=0;exitX=0.5;exitY=1;exitDx=0;exitDy=0;" edge="1" parent="1" source="ue3Qbj8Ns9bbCWjfKj7O-4" target="ue3Qbj8Ns9bbCWjfKj7O-20">
          <mxGeometry width="50" height="50" relative="1" as="geometry">
            <mxPoint x="620" y="800" as="sourcePoint" />
            <mxPoint x="750" y="800" as="targetPoint" />
          </mxGeometry>
        </mxCell>
        <mxCell id="ue3Qbj8Ns9bbCWjfKj7O-25" value="" style="endArrow=classic;startArrow=classic;html=1;rounded=0;entryX=-0.003;entryY=0.604;entryDx=0;entryDy=0;exitX=1.025;exitY=0.62;exitDx=0;exitDy=0;entryPerimeter=0;exitPerimeter=0;" edge="1" parent="1" source="ue3Qbj8Ns9bbCWjfKj7O-20" target="ue3Qbj8Ns9bbCWjfKj7O-19">
          <mxGeometry width="50" height="50" relative="1" as="geometry">
            <mxPoint x="349" y="920" as="sourcePoint" />
            <mxPoint x="479" y="920" as="targetPoint" />
          </mxGeometry>
        </mxCell>
        <mxCell id="ue3Qbj8Ns9bbCWjfKj7O-26" value="" style="endArrow=classic;startArrow=classic;html=1;rounded=0;entryX=0.5;entryY=0;entryDx=0;entryDy=0;exitX=0.5;exitY=1;exitDx=0;exitDy=0;" edge="1" parent="1" source="ue3Qbj8Ns9bbCWjfKj7O-14" target="ue3Qbj8Ns9bbCWjfKj7O-19">
          <mxGeometry width="50" height="50" relative="1" as="geometry">
            <mxPoint x="660" y="760" as="sourcePoint" />
            <mxPoint x="790" y="760" as="targetPoint" />
          </mxGeometry>
        </mxCell>
        <mxCell id="ue3Qbj8Ns9bbCWjfKj7O-27" value="" style="endArrow=classic;startArrow=classic;html=1;rounded=0;entryX=0.037;entryY=0.91;entryDx=0;entryDy=0;exitX=1;exitY=0;exitDx=0;exitDy=0;entryPerimeter=0;" edge="1" parent="1" source="ue3Qbj8Ns9bbCWjfKj7O-4" target="ue3Qbj8Ns9bbCWjfKj7O-17">
          <mxGeometry width="50" height="50" relative="1" as="geometry">
            <mxPoint x="690" y="689.05" as="sourcePoint" />
            <mxPoint x="820" y="689.05" as="targetPoint" />
          </mxGeometry>
        </mxCell>
        <mxCell id="ue3Qbj8Ns9bbCWjfKj7O-29" value="" style="endArrow=classic;startArrow=classic;html=1;rounded=0;entryX=0;entryY=0.5;entryDx=0;entryDy=0;exitX=1;exitY=0.5;exitDx=0;exitDy=0;" edge="1" parent="1" source="ue3Qbj8Ns9bbCWjfKj7O-12" target="ue3Qbj8Ns9bbCWjfKj7O-20">
          <mxGeometry width="50" height="50" relative="1" as="geometry">
            <mxPoint x="170" y="970" as="sourcePoint" />
            <mxPoint x="300" y="970" as="targetPoint" />
          </mxGeometry>
        </mxCell>
        <mxCell id="ue3Qbj8Ns9bbCWjfKj7O-30" value="" style="endArrow=classic;startArrow=classic;html=1;rounded=0;exitX=0.5;exitY=1;exitDx=0;exitDy=0;" edge="1" parent="1" source="ue3Qbj8Ns9bbCWjfKj7O-13" target="ue3Qbj8Ns9bbCWjfKj7O-12">
          <mxGeometry width="50" height="50" relative="1" as="geometry">
            <mxPoint x="190" y="970" as="sourcePoint" />
            <mxPoint x="320" y="970" as="targetPoint" />
          </mxGeometry>
        </mxCell>
      </root>
    </mxGraphModel>
  </diagram>
</mxfile>
